<?xml version="1.0" encoding="utf-8"?>
<!-- Generator: Adobe Illustrator 17.0.0, SVG Export Plug-In . SVG Version: 6.00 Build 0)  -->
<!DOCTYPE svg PUBLIC "-//W3C//DTD SVG 1.1//EN" "http://www.w3.org/Graphics/SVG/1.1/DTD/svg11.dtd">
<svg version="1.1" id="图层_1" xmlns="http://www.w3.org/2000/svg" xmlns:xlink="http://www.w3.org/1999/xlink" x="0px" y="0px"
	 width="200px" height="200px" viewBox="0 0 200 200" style="enable-background:new 0 0 200 200;" xml:space="preserve">
<g>
	<g>
		<defs>
			<circle id="SVGID_15_" cx="100.035" cy="99.935" r="99.193"/>
		</defs>
		<clipPath id="SVGID_2_">
			<use xlink:href="#SVGID_15_"  style="overflow:visible;"/>
		</clipPath>
		<circle style="clip-path:url(#SVGID_2_);fill-rule:evenodd;clip-rule:evenodd;fill:#7D5F54;" cx="99.86" cy="99.935" r="99.193"/>
		<path style="clip-path:url(#SVGID_2_);fill-rule:evenodd;clip-rule:evenodd;fill:#FFFFFF;" d="M55.051,152.532
			c0,0-12.853,4.059-11.838,40.926c0.338,2.706,0.338,2.706,0.338,2.706h16.912L55.051,152.532z"/>
		<path style="clip-path:url(#SVGID_2_);fill-rule:evenodd;clip-rule:evenodd;fill:#FFFFFF;" d="M142.992,150.502
			c0,0,14.35,6.088,13.335,42.956c-0.338,2.706-0.338,2.706-0.338,2.706h-16.912L142.992,150.502z"/>
		<path style="clip-path:url(#SVGID_2_);fill-rule:evenodd;clip-rule:evenodd;fill:#4EAF8C;" d="M78.164,133.73
			c0,0-13.98,3.644-23.113,19.02c0.338,44.417,0.395,47.663,0.395,47.663h87.602l-0.057-49.713c0,0-6.415-11.212-21.76-15.831
			C111.284,131.875,98.551,128.624,78.164,133.73z"/>
		<path style="clip-path:url(#SVGID_2_);fill-rule:evenodd;clip-rule:evenodd;fill:#FFDDB8;" d="M85.194,99.202h28.036v40.551
			c0,13.687-28.036,15.259-28.036,0V99.202z"/>
		
			<ellipse style="clip-path:url(#SVGID_2_);fill-rule:evenodd;clip-rule:evenodd;fill:#E8C5A0;" cx="98.872" cy="116.335" rx="13.559" ry="10.807"/>
		<path style="clip-path:url(#SVGID_2_);fill-rule:evenodd;clip-rule:evenodd;fill:#FFDDB8;" d="M99.195,44.118
			c-59.375,0-35.304,78.43,0,78.43C134.499,122.548,158.568,44.118,99.195,44.118z"/>
		<path style="clip-path:url(#SVGID_2_);fill-rule:evenodd;clip-rule:evenodd;fill:#352717;" d="M114.967,49.522
			c9.606,4.083,14.357,17.886,16.58,26.191c3.228,12.062,1.408,11.026,5.712,1.835c4.306-9.191-6.24-48.824-37.033-48.824
			c-30.792,0-43.398,30.492-39.094,47.149c4.306,16.658,4.306,12.702,6.997,0.065C75.052,43.437,98.585,56.185,114.967,49.522z"/>
		<g style="clip-path:url(#SVGID_2_);">
			
				<ellipse transform="matrix(0.2172 -0.9761 0.9761 0.2172 28.6803 194.1149)" style="fill-rule:evenodd;clip-rule:evenodd;fill:#FFDDB8;" cx="135.365" cy="79.176" rx="9.282" ry="4.009"/>
			
				<ellipse transform="matrix(-0.2172 -0.9761 0.9761 -0.2172 -0.4461 157.9944)" style="fill-rule:evenodd;clip-rule:evenodd;fill:#FFDDB8;" cx="63.13" cy="79.176" rx="9.282" ry="4.008"/>
		</g>
		<g style="clip-path:url(#SVGID_2_);">
			<circle style="fill-rule:evenodd;clip-rule:evenodd;fill:#2B292E;" cx="84.093" cy="83.876" r="2.197"/>
			<circle style="fill-rule:evenodd;clip-rule:evenodd;fill:#2B292E;" cx="112.924" cy="83.876" r="2.197"/>
		</g>
		<path style="clip-path:url(#SVGID_2_);fill-rule:evenodd;clip-rule:evenodd;fill:#895F27;" d="M97.536,112.798"/>
		<path style="clip-path:url(#SVGID_2_);fill-rule:evenodd;clip-rule:evenodd;fill:#3E2E2C;" d="M121.093,135.98"/>
		<path style="clip-path:url(#SVGID_2_);fill-rule:evenodd;clip-rule:evenodd;fill:#352717;" d="M114.967,49.522
			c-4.366,3.789-19.191,12.329-27.836,12.562c2.266-2.048,3.798-3.958,4.547-6.281c0.751-2.324-11.753,8.76-16.801,9.235
			c2.607-3.106,3.046-4.398,3.166-6.111C69.86,63.401,70,72.063,70.012,79.034c0.012,6.971-3.761,5.014-3.249-2.632
			c0.512-7.645-4.581-16.998-2.025-23.039c2.556-6.042,36.246-14.405,46.934-14.405c10.688,0,19.516,10.688,22.073,15.334
			c2.555,4.647-2.046,18.346-1.906,22.528c0.142,4.182-2.781,8.252-2.821-0.626C128.978,67.316,123.016,57.968,114.967,49.522z"/>
		<path style="clip-path:url(#SVGID_2_);fill-rule:evenodd;clip-rule:evenodd;fill:#FFFFFF;" d="M85.194,124.909
			c0,0,1.68,13.135,14.758,24.409c1.353,1.804-14.29,5.919-16.658,12.853c-0.338-0.169-5.581-19.223-5.13-28.468
			C84.478,124.909,83.637,126.598,85.194,124.909z"/>
		<path style="clip-path:url(#SVGID_2_);fill-rule:evenodd;clip-rule:evenodd;fill:#FFFFFF;" d="M113.229,124.172
			c0,0-5.667,18.889-13.278,25.146c-1.404,1.155,13.698,7.948,16.207,13.36c3.157-11.5,4.623-24.127,5.073-27.848
			C114.468,125.586,113.229,124.172,113.229,124.172z"/>
		<g style="clip-path:url(#SVGID_2_);">
			<path style="fill-rule:evenodd;clip-rule:evenodd;fill:#7D5F54;" d="M105.23,104.214c0.212,0.425,0.158,0.883-0.125,1.008
				c-3.255,1.423-6.959,1.423-10.214,0c-0.284-0.124-0.337-0.582-0.125-1.008l0,0c0.212-0.426,0.575-0.676,0.815-0.572
				c2.815,1.23,6.018,1.23,8.833,0C104.654,103.538,105.016,103.788,105.23,104.214L105.23,104.214z"/>
		</g>
		<circle style="clip-path:url(#SVGID_2_);fill-rule:evenodd;clip-rule:evenodd;fill:none;" cx="99.86" cy="99.935" r="99.193"/>
		<path style="clip-path:url(#SVGID_2_);fill:#352717;" d="M135.511,46.802c-2.199-4.489-6.252-7.83-9.291-9.856
			c-13.151-17.81-39.567-21.441-39.567-21.441l2.145,9.202c-12.467-0.4-22.612,2.888-22.612,2.888l4.972,9.889
			c-2.342,2.092-6.608,6.505-8.51,12.325c-2.694,8.239,0,16.162,0,16.162L77.227,43.5c6.009,4.04,17.007,9.863,30.123,9.538
			c-0.538-1.892-2.595-9.131-2.595-9.131s4.793,5.823,16.717,7.566c0.056-0.68,0.284-3.448,0.507-6.159l15.781,20.301
			C137.76,65.615,139.325,54.586,135.511,46.802z"/>
	</g>
</g>
</svg>
