<?xml version="1.0" encoding="utf-8"?>
<!-- Generator: Adobe Illustrator 17.0.0, SVG Export Plug-In . SVG Version: 6.00 Build 0)  -->
<!DOCTYPE svg PUBLIC "-//W3C//DTD SVG 1.1//EN" "http://www.w3.org/Graphics/SVG/1.1/DTD/svg11.dtd">
<svg version="1.1" id="图层_1" xmlns="http://www.w3.org/2000/svg" xmlns:xlink="http://www.w3.org/1999/xlink" x="0px" y="0px"
	 width="200px" height="200px" viewBox="0 0 200 200" style="enable-background:new 0 0 200 200;" xml:space="preserve">
<g>
	<defs>
		<circle id="SVGID_9_" cx="100" cy="100" r="99.193"/>
	</defs>
	<clipPath id="SVGID_2_">
		<use xlink:href="#SVGID_9_"  style="overflow:visible;"/>
	</clipPath>
	
		<circle style="clip-path:url(#SVGID_2_);fill-rule:evenodd;clip-rule:evenodd;fill:#7D5F54;" cx="100.346" cy="100.166" r="99.193"/>
	<path style="clip-path:url(#SVGID_2_);fill-rule:evenodd;clip-rule:evenodd;fill:#37577D;" d="M63.28,137.985
		c-9.772,6.762-17.747,24.394-23.48,41.603c16.066,11.942,39.47,20.946,60.546,20.946c21.04,0,43.486-8.258,59.539-20.165
		c-5.72-17.291-13.589-36.992-23.479-43.591c-16.927-11.295-26.258-11.886-36.246-12.031C89.945,124.6,80.086,126.357,63.28,137.985
		z"/>
	<polygon style="clip-path:url(#SVGID_2_);fill:#F5F6F7;" points="115.573,202.484 85.426,202.484 86.135,147.6 115.573,147.6 	"/>
	<polygon style="clip-path:url(#SVGID_2_);fill:#E0E0E0;" points="103.328,202.078 111.236,202.078 122.076,154.57 109.479,154.631 
			"/>
	<path style="clip-path:url(#SVGID_2_);fill:#352717;" d="M98.529,19.821c0,0-32.949,0-39.173,42.467s-9.786,54.836-12.081,77.247
		c-1.977,19.302,3.631,22.942-2.446,37.123c-0.902,2.104-2.954,6.168-4.693,7.632c-1.739,1.464,5.141-3.186,7.53-7.815
		c3.295-6.384,7.816-28.028,7.999-31.048c0.183-3.02,0.572,12.136,4.507,23.668c0.824,1.831,2.57,12.633,0.648,21.419
		c-1.098,3.844-3.112,8.329-5.034,10.434s-3.478,4.576,0.458,2.014c3.936-2.563,15.453-32.503,15.453-48.331
		c0-15.815,31.421-34.861,44.887-28.128c15.815,7.908,20.724,22.167,18.044,33.038c-3.544,14.379-2.119,26.075,4.837,28.551
		c-3.478-6.493-3.954-17.023-1.574-25.614c3.441-12.423,1.025-19.271,1.94-20.369c0.915-1.098,7.94,9.851,8.474,16.664
		c1.022,13.035,12.147,18.144,9.933,16.116c-3.214-2.943-4.777-8.698-5.548-14.132c-0.74-5.218-1.602-18.818-1.876-30.899
		c-0.275-12.081-3.961-54.389-7.988-67.935c-2.489-8.373-5.538-22.343-15.719-31.876C120.819,24.157,111.809,19.961,98.529,19.821z"
		/>
	<path style="clip-path:url(#SVGID_2_);fill-rule:evenodd;clip-rule:evenodd;fill:#FFDDB8;" d="M133.779,79.646
		c0,0,9.692,0.977,7.019,9.732c-1.065,3.488-6.104,8.756-9.765,9.122C127.373,98.866,133.779,79.646,133.779,79.646z"/>
	<path style="clip-path:url(#SVGID_2_);fill-rule:evenodd;clip-rule:evenodd;fill:#FFDDB8;" d="M66.3,79.646
		c0,0-9.692,0.977-7.019,9.732c1.065,3.488,6.104,8.756,9.765,9.122C72.707,98.866,66.3,79.646,66.3,79.646z"/>
	<path style="clip-path:url(#SVGID_2_);fill-rule:evenodd;clip-rule:evenodd;fill:#FFDDB8;" d="M86.328,93.92h28.035v40.551
		c0,13.687-28.035,15.259-28.035,0V93.92z"/>
	
		<ellipse style="clip-path:url(#SVGID_2_);fill-rule:evenodd;clip-rule:evenodd;fill:#E8C5A0;" cx="100.364" cy="116.457" rx="13.559" ry="10.807"/>
	<path style="clip-path:url(#SVGID_2_);fill-rule:evenodd;clip-rule:evenodd;fill:#FFDDB8;" d="M100.345,42.353
		c-59.373,0-35.304,78.429,0,78.429C135.65,120.782,159.719,42.353,100.345,42.353z"/>
	<path style="clip-path:url(#SVGID_2_);fill:#352717;" d="M63.325,70.471h54.581l2.558-16.474v16.474h15.942
		c0,0,1.117-28.117-9.972-35.878C108.84,22.281,68.868,38.62,63.325,70.471z"/>
	<rect x="85.23" y="173.627" style="clip-path:url(#SVGID_2_);fill:#2D4263;" width="0.392" height="26.451"/>
	<polygon style="clip-path:url(#SVGID_2_);fill:#2D4263;" points="115.573,202.484 115.181,202.484 115.377,181.622 115.87,181.588 
			"/>
	<path style="clip-path:url(#SVGID_2_);fill:#2D4263;" d="M77.486,135.676c0,0-9.041,12.579-6.683,19.393
		c2.359,6.814,13.89,26.927,14.479,32.922c0.59,5.995,0.393-37.639,0.852-40.391S79.976,134.235,77.486,135.676z"/>
	<path style="clip-path:url(#SVGID_2_);fill:#2D4263;" d="M126.087,136.178c0,0,8.912,12.764,6.127,19.415
		s-15.566,25.995-16.533,31.94c-0.968,5.945,0.709-37.383,0.425-40.158C115.822,144.599,123.694,134.582,126.087,136.178z"/>
	<path style="clip-path:url(#SVGID_2_);fill:#DA563D;" d="M87.729,154.166c0,0,1.742,49.453,2.83,51.847
		c1.088,2.395,5.007,2.612,8.054,2.395c3.048-0.218,8.49-4.389,9.143-6.33c0.653-1.942,0.871-31.367,0-36.374
		C106.885,160.697,87.729,154.166,87.729,154.166z"/>
	<path style="clip-path:url(#SVGID_2_);fill:#DA563D;" d="M115.508,115.834c-2.196,1.557-6.971,3.532-6.971,3.532
		s-0.473,0.35-0.85,1.712s-2.87,5.178-3.793,5.888c-0.923,0.71,17.881,11.162,17.881,11.162s1.646-10.621,0.787-14.578
		c-0.762-3.508-2.901-8.575-4.916-9.277C117.646,114.272,116.367,115.225,115.508,115.834z"/>
	<path style="clip-path:url(#SVGID_2_);fill:#D1573F;" d="M81.089,130.003c0,0-3.374,2.055-2.721,6.905
		c0.653,4.85,5.878,26.837,29.606,37.939c1.959,0.218,1.959-0.435,1.905-1.197c-0.054-0.762,0.403-12.157,1.959-13.225
		c1.557-1.067,0.816-2.231,0.816-2.231S83.919,127.499,81.089,130.003z"/>
	<path style="clip-path:url(#SVGID_2_);fill:#E56244;" d="M84.241,115.173c0,0,0.475,0.345,2.024,1.359
		c3.599,2.357,10.249,8.275,17.709,10.314c3.837,1.469,18.612,9.469,20.082,13.061c0.327,0.98-7.674,9.306-8.245,12.572
		c-0.082,2.286,0.871,3.864-0.653,6.041c-1.415,0.98-9.687,7.184-34.068-28.517c-0.179-9.061-0.331-10.137-0.348-10.847
		C80.708,117.831,80.577,116.457,84.241,115.173z"/>
	<g style="clip-path:url(#SVGID_2_);">
		<circle style="fill-rule:evenodd;clip-rule:evenodd;fill:#2B292E;" cx="86.235" cy="81.568" r="2.197"/>
		<circle style="fill-rule:evenodd;clip-rule:evenodd;fill:#2B292E;" cx="115.065" cy="81.568" r="2.197"/>
	</g>
	<g style="clip-path:url(#SVGID_2_);">
		<rect x="96.738" y="102.185" style="fill:#E56244;" width="7.825" height="1.373"/>
		<rect x="103.922" y="101.498" style="fill:#E56244;" width="1.51" height="2.059"/>
	</g>
	<circle style="clip-path:url(#SVGID_2_);fill-rule:evenodd;clip-rule:evenodd;fill:#FFCAB0;" cx="80.731" cy="99.16" r="5.137"/>
	<circle style="clip-path:url(#SVGID_2_);fill-rule:evenodd;clip-rule:evenodd;fill:#FFCAB0;" cx="119.408" cy="99.16" r="5.137"/>
</g>
</svg>
